<svg width="1909" height="1909" viewBox="0 0 1909 1909" fill="none" xmlns="http://www.w3.org/2000/svg">
<rect width="1909" height="1909" fill="white"/>
<path d="M759.832 401.451H505L955 1182.09L1082.55 960.819L759.832 401.451Z" fill="#0C1136"/>
<path d="M1163.11 821.075V542.877L928.074 401.451H1405L1163.11 821.075Z" fill="#E72166"/>
<path d="M566.433 1507.54L507.243 1359.57H544.659L573.197 1435.04C574.888 1439.41 576.297 1443.21 577.425 1446.45C578.693 1449.69 579.75 1452.72 580.596 1455.54C581.582 1458.36 582.428 1461.25 583.132 1464.21C583.978 1467.03 584.894 1470.27 585.881 1473.93H579.327C580.455 1469.14 581.582 1464.91 582.71 1461.25C583.837 1457.45 585.105 1453.57 586.515 1449.62C587.924 1445.54 589.686 1440.67 591.799 1435.04L619.28 1359.57H656.062L596.45 1507.54H566.433ZM640.783 1507.54L699.338 1359.57H729.778L787.911 1507.54H751.552L723.648 1432.5C722.521 1429.54 721.393 1426.37 720.266 1422.99C719.138 1419.61 718.011 1416.15 716.883 1412.63C715.756 1408.97 714.629 1405.44 713.501 1402.06C712.515 1398.54 711.669 1395.3 710.964 1392.34L717.306 1392.13C716.461 1395.65 715.474 1399.1 714.347 1402.48C713.36 1405.87 712.303 1409.25 711.176 1412.63C710.189 1415.87 709.062 1419.18 707.794 1422.57C706.525 1425.81 705.327 1429.19 704.2 1432.71L676.296 1507.54H640.783ZM668.686 1479.22L679.89 1452.16H747.958L758.95 1479.22H668.686ZM806.373 1507.54V1359.57H838.504L916.085 1465.27L909.109 1464.21C908.404 1459.56 907.84 1455.12 907.418 1450.89C906.995 1446.66 906.572 1442.51 906.149 1438.42C905.867 1434.33 905.586 1430.18 905.304 1425.95C905.163 1421.72 905.022 1417.14 904.881 1412.21C904.881 1407.28 904.881 1401.92 904.881 1396.14V1359.57H939.76V1507.54H907.206L826.244 1398.47L837.024 1399.95C837.729 1406.71 838.293 1412.49 838.716 1417.28C839.279 1421.93 839.702 1426.09 839.984 1429.75C840.407 1433.42 840.689 1436.73 840.83 1439.69C840.97 1442.65 841.041 1445.61 841.041 1448.57C841.182 1451.39 841.252 1454.56 841.252 1458.08V1507.54H806.373ZM1044.11 1509.66C1032.98 1509.66 1022.69 1507.83 1013.25 1504.16C1003.95 1500.36 995.844 1495.07 988.939 1488.31C982.033 1481.4 976.678 1473.3 972.873 1464C969.209 1454.56 967.377 1444.2 967.377 1432.92C967.377 1421.93 969.35 1411.78 973.296 1402.48C977.242 1393.18 982.667 1385.15 989.573 1378.39C996.619 1371.48 1004.86 1366.12 1014.31 1362.32C1023.89 1358.51 1034.32 1356.61 1045.59 1356.61C1052.64 1356.61 1059.54 1357.53 1066.31 1359.36C1073.07 1361.19 1079.34 1363.94 1085.12 1367.6C1091.04 1371.13 1096.11 1375.36 1100.34 1380.29L1078.36 1405.44C1075.4 1402.34 1072.23 1399.67 1068.84 1397.41C1065.6 1395.01 1062.01 1393.18 1058.06 1391.91C1054.12 1390.65 1049.89 1390.01 1045.38 1390.01C1039.74 1390.01 1034.39 1391.07 1029.31 1393.18C1024.38 1395.16 1020.01 1398.04 1016.21 1401.85C1012.54 1405.51 1009.65 1410.02 1007.54 1415.38C1005.43 1420.73 1004.37 1426.72 1004.37 1433.35C1004.37 1439.83 1005.43 1445.75 1007.54 1451.1C1009.65 1456.32 1012.61 1460.83 1016.42 1464.63C1020.22 1468.44 1024.8 1471.33 1030.16 1473.3C1035.66 1475.27 1041.72 1476.26 1048.34 1476.26C1052.85 1476.26 1057.15 1475.62 1061.23 1474.36C1065.32 1473.09 1069.06 1471.4 1072.44 1469.28C1075.96 1467.03 1079.06 1464.49 1081.74 1461.67L1099.07 1489.15C1095.55 1493.1 1090.83 1496.62 1084.91 1499.72C1079.13 1502.82 1072.65 1505.29 1065.46 1507.12C1058.42 1508.81 1051.3 1509.66 1044.11 1509.66ZM1123.67 1507.54V1359.57H1226.82V1390.22H1158.55V1476.89H1228.94V1507.54H1123.67ZM1140.58 1446.88V1417.7H1217.31V1446.88H1140.58ZM1259.91 1507.54V1359.57H1321.85C1332.7 1359.57 1342.64 1361.4 1351.66 1365.07C1360.68 1368.59 1368.43 1373.66 1374.91 1380.29C1381.53 1386.91 1386.61 1394.73 1390.13 1403.75C1393.65 1412.77 1395.42 1422.71 1395.42 1433.56C1395.42 1444.41 1393.65 1454.42 1390.13 1463.58C1386.61 1472.59 1381.53 1480.42 1374.91 1487.04C1368.43 1493.52 1360.68 1498.6 1351.66 1502.26C1342.64 1505.78 1332.7 1507.54 1321.85 1507.54H1259.91ZM1295.85 1483.02L1290.99 1475.84H1320.79C1326.71 1475.84 1332 1474.85 1336.65 1472.88C1341.3 1470.76 1345.25 1467.87 1348.49 1464.21C1351.87 1460.55 1354.48 1456.11 1356.31 1450.89C1358.14 1445.68 1359.06 1439.9 1359.06 1433.56C1359.06 1427.22 1358.14 1421.44 1356.31 1416.22C1354.48 1411.01 1351.87 1406.57 1348.49 1402.91C1345.25 1399.24 1341.3 1396.42 1336.65 1394.45C1332 1392.34 1326.71 1391.28 1320.79 1391.28H1290.35L1295.85 1384.52V1483.02Z" fill="#0C1136"/>
</svg>
